<svg width="20" height="20" viewBox="0 0 20 20" fill-rule="evenodd" clip-rule="evenodd">
<path d="M17.6261 18.9785C18.0167 19.369 18.6498 19.369 19.0404 18.9785C19.4309 18.588 19.4309 17.9548 19.0404 17.5643L11.4165 9.9404L19.0404 2.31654C19.4309 1.92602 19.4309 1.29285 19.0404 0.902329C18.6498 0.511805 18.0167 0.511805 17.6261 0.902329L10.0023 8.52619L2.3785 0.902407C1.98797 0.511883 1.35481 0.511882 0.964282 0.902406C0.573758 1.29293 0.573758 1.9261 0.964282 2.31662L8.58806 9.9404L0.96428 17.5642C0.573756 17.9547 0.573756 18.5879 0.96428 18.9784C1.3548 19.3689 1.98797 19.3689 2.37849 18.9784L10.0023 11.3546L17.6261 18.9785Z" />
</svg>
