<svg width="22" height="14" viewBox="0 0 22 14">
<path d="M21 12.0933L21.0869 12.0972C21.5155 12.1407 21.8496 12.5028 21.8496 12.9429C21.8496 13.383 21.5155 13.745 21.0869 13.7886L21 13.7925H1C0.530558 13.7925 0.150391 13.4123 0.150391 12.9429C0.150391 12.4734 0.530558 12.0933 1 12.0933H21ZM21 6.09326L21.0869 6.09717C21.5155 6.1407 21.8496 6.50277 21.8496 6.94287C21.8496 7.38297 21.5155 7.74505 21.0869 7.78857L21 7.79248H7.66699C7.19755 7.79248 6.81641 7.41231 6.81641 6.94287C6.81641 6.47343 7.19755 6.09326 7.66699 6.09326H21ZM21 0.0932617L21.0869 0.097168C21.5155 0.140695 21.8496 0.502768 21.8496 0.942871C21.8496 1.38297 21.5155 1.74505 21.0869 1.78857L21 1.79248H1C0.530558 1.79248 0.150391 1.41231 0.150391 0.942871C0.150391 0.473429 0.530558 0.0932617 1 0.0932617H21Z" />
</svg>
