<svg width="19" height="19" viewBox="0 0 19 19" >
<path d="M17.4735 0.0187704C17.7973 -0.0449909 18.1361 0.0554581 18.3739 0.293184C18.6453 0.564773 18.737 0.967829 18.6102 1.33029L12.7772 17.9973C12.6417 18.3843 12.2835 18.6495 11.8739 18.6662C11.5155 18.6808 11.1806 18.5029 10.9911 18.2072L10.9198 18.0735L7.74106 10.9231L0.593594 7.74729C0.219103 7.58079 -0.0157261 7.20267 0.000820945 6.79318C0.0175347 6.38351 0.282766 6.02531 0.669766 5.88986L17.3358 0.0558797L17.4735 0.0187704ZM9.69223 10.3879L11.7225 14.9553L15.2743 4.80588L9.69223 10.3879ZM3.70981 6.94357L8.27816 8.97385L13.8602 3.39182L3.70981 6.94357Z" />
</svg>
