<svg width="31" height="23" viewBox="0 0 31 23" xmlns="http://www.w3.org/2000/svg">
<path d="M15.3946 0C10.6462 0 6.18708 0.359375 3.81283 0.861939C2.23094 1.22131 0.862594 2.29944 0.575999 3.95313C0.289405 5.677 0 8.26563 0 11.5C0 14.7344 0.286595 17.25 0.646243 19.0469C0.935647 20.6276 2.30119 21.7787 3.88308 22.1381C6.40343 22.6406 10.7164 23 15.4649 23C20.2134 23 24.5263 22.6406 27.0439 22.1381C28.6286 21.7787 29.9941 20.7006 30.2807 19.0469C30.5701 17.25 30.9298 14.6642 31 11.4298C31 8.19543 30.6403 5.60681 30.2807 3.80994C29.9941 2.22925 28.6286 1.07813 27.0439 0.71875C24.5263 0.359375 20.1403 0 15.3946 0ZM15.3946 1.4375C20.573 1.4375 24.7427 1.86707 26.7573 2.22644C27.8362 2.51563 28.6988 3.23438 28.8421 4.16931C29.2748 6.46875 29.5614 8.91418 29.5614 11.4298C29.4912 14.5182 29.1315 17.0338 28.8421 18.8307C28.6286 20.1952 27.19 20.6276 26.7573 20.7736C24.1667 21.2761 19.8509 21.6327 15.5351 21.6327C11.2193 21.6327 6.83332 21.3463 4.31578 20.7736C3.23683 20.4844 2.37424 19.7656 2.23094 18.8307C1.65494 16.8176 1.43859 14.1588 1.43859 11.5C1.43859 8.19263 1.728 5.75 2.01459 4.24231C2.23094 2.875 3.73978 2.44263 4.09943 2.29944C6.47367 1.79687 10.8625 1.4375 15.3946 1.4375ZM11.5087 5.75V17.25L21.5789 11.5L11.5087 5.75ZM12.9473 8.19543L18.7017 11.5L12.9473 14.8046V8.19543Z"/>
</svg>
